<?xml version="1.0" encoding="UTF-8"?>
<svg xmlns="http://www.w3.org/2000/svg" xml:space="preserve" width="732px" height="591px" version="1.1" shape-rendering="geometricPrecision" text-rendering="geometricPrecision" image-rendering="optimizeQuality" fill-rule="evenodd" clip-rule="evenodd"
viewBox="0 0 293.76 237.05"
 xmlns:xlink="http://www.w3.org/1999/xlink">
  <path fill="#2979FF" fill-rule="nonzero" d="M232.75 0l-171.74 0c-33.7,0 -61.01,31.15 -61.01,69.57l0 97.91c0,38.42 27.31,69.57 61.01,69.57l171.74 0c33.69,0 61.01,-31.15 61.01,-69.57l0 -97.91c0,-38.42 -27.32,-69.57 -61.01,-69.57zm-44.58 63.33c11.93,0 21.6,9.67 21.6,21.6 0,11.93 -9.67,21.6 -21.6,21.6 -11.93,0 -21.6,-9.67 -21.6,-21.6 0,-11.93 9.67,-21.6 21.6,-21.6zm-84.24 0c11.93,0 21.6,9.67 21.6,21.6 0,11.93 -9.67,21.6 -21.6,21.6 -11.93,0 -21.61,-9.67 -21.61,-21.6 0,-11.93 9.68,-21.6 21.61,-21.6zm-9.8 88.8c9.13,-6.06 19.62,-10.2 30.72,-12.14 11.09,-1.93 22.52,-1.61 33.47,0.94 10.94,2.56 21.13,7.29 29.84,13.85 8.7,6.56 15.72,14.79 20.53,24.11l-16.33 7.01c-3.68,-7.12 -9.04,-13.42 -15.7,-18.44 -6.66,-5.02 -14.46,-8.63 -22.83,-10.59 -8.36,-1.95 -17.11,-2.2 -25.59,-0.72 -8.49,1.48 -16.51,4.65 -23.5,9.29l-10.61 -13.31z"/>
</svg>
