<?xml version="1.0" encoding="UTF-8"?>
<svg xmlns="http://www.w3.org/2000/svg" xml:space="preserve" width="732px" height="591px" version="1.1" shape-rendering="geometricPrecision" text-rendering="geometricPrecision" image-rendering="optimizeQuality" fill-rule="evenodd" clip-rule="evenodd"
viewBox="0 0 293.76 237.05"
  xmlns:xlink="http://www.w3.org/1999/xlink">
  <path fill="#2979FF" fill-rule="nonzero" d="M232.75 0l-171.74 0c-33.69,0 -61.01,31.15 -61.01,69.57l0 97.91c0,38.42 27.32,69.57 61.01,69.57l171.74 0c33.69,0 61.01,-31.15 61.01,-69.57l0 -97.91c0,-38.42 -27.32,-69.57 -61.01,-69.57zm-31.02 123.29l-91.6 43.69c-2.44,1.16 -5.26,-0.62 -5.26,-3.32l0 -90.11c0,-2.74 2.89,-4.52 5.34,-3.28l91.6 46.42c2.73,1.38 2.68,5.28 -0.08,6.6z"/>
</svg>
